<?xml version="1.0" ?><svg enable-background="new 0 0 595.3 841.9" id="Layer_1" version="1.1" viewBox="0 0 595.3 841.9" xml:space="preserve" xmlns="http://www.w3.org/2000/svg" xmlns:xlink="http://www.w3.org/1999/xlink"><polygon fill="#8BC34A" points="297.6,160.5 355.9,205.2 427.9,195.2 455.1,263.4 523.4,290.7 513.4,362.7 558.1,420.9 513.4,479.2   523.4,551.2 455.1,578.4 427.9,646.7 355.9,636.7 297.6,681.4 239.4,636.7 167.4,646.7 140.1,578.4 71.9,551.2 81.9,479.2   37.2,420.9 81.9,362.7 71.9,290.7 140.1,263.4 167.4,195.2 239.4,205.2 "/><polygon fill="#CCFF90" points="429.1,304.4 260.4,473 191,403.6 156.3,438.3 260.4,542.5 463.8,339.1 "/></svg>